<?xml version="1.0" ?>
<svg xmlns="http://www.w3.org/2000/svg" viewBox="0 0 512 512" width="100%">
  <path d="M256,0C114.615,0,0,114.615,0,256S114.615,512,256,512,512,397.385,512,256,397.385,0,256,0Zm89.668,347.523a13.139,13.139,0,0,1-18.24,3.551c-70.978-47.847-178.969-19.9-180.052-19.608a13.14,13.14,0,1,1-6.755-25.4c1.224-.325,30.427-7.987,69.6-9.132,52.611-1.539,98.222,9.645,131.9,32.345A13.141,13.141,0,0,1,345.668,347.523Zm25.272-56.7a15.955,15.955,0,0,1-21.982,5.094c-47.7-29.75-100.787-34.875-136.923-33.933-39.908,1.041-68.691,9.485-68.978,9.571a15.955,15.955,0,0,1-9.168-30.565c1.3-.391,32.392-9.6,76.295-10.876,58.494-1.7,112.321,11.694,155.662,38.728A15.955,15.955,0,0,1,370.94,290.827ZM400.375,224.7a19.237,19.237,0,0,1-26.05,7.853c-58.761-31.54-120.637-36.549-162.195-35.2-45.744,1.488-77.785,10.784-78.1,10.877a19.239,19.239,0,0,1-10.95-36.888c1.454-.433,36.185-10.618,86.542-12.4,66.839-2.372,130.086,11.358,182.9,39.709A19.239,19.239,0,0,1,400.375,224.7Z"/>
</svg>