<svg xmlns="http://www.w3.org/2000/svg" xmlns:xlink="http://www.w3.org/1999/xlink" viewBox="0,0,256,256" width="48px" height="48px"><g fill-opacity="0.56078" fill="#000000" fill-rule="nonzero" stroke="none" stroke-width="1" stroke-linecap="butt" stroke-linejoin="miter" stroke-miterlimit="10" stroke-dasharray="" stroke-dashoffset="0" font-family="none" font-weight="none" font-size="none" text-anchor="none" style="mix-blend-mode: normal"><g transform="scale(5.12,5.12)"><path d="M41,4h-32c-2.757,0 -5,2.243 -5,5v32c0,2.757 2.243,5 5,5h32c2.757,0 5,-2.243 5,-5v-32c0,-2.757 -2.243,-5 -5,-5zM37.006,22.323c-0.227,0.021 -0.457,0.035 -0.69,0.035c-2.623,0 -4.928,-1.349 -6.269,-3.388c0,5.349 0,11.435 0,11.537c0,4.709 -3.818,8.527 -8.527,8.527c-4.709,0 -8.527,-3.818 -8.527,-8.527c0,-4.709 3.818,-8.527 8.527,-8.527c0.178,0 0.352,0.016 0.527,0.027v4.202c-0.175,-0.021 -0.347,-0.053 -0.527,-0.053c-2.404,0 -4.352,1.948 -4.352,4.352c0,2.404 1.948,4.352 4.352,4.352c2.404,0 4.527,-1.894 4.527,-4.298c0,-0.095 0.042,-19.594 0.042,-19.594h4.016c0.378,3.591 3.277,6.425 6.901,6.685z"></path></g></g></svg>