<?xml version="1.0" standalone="no"?>
<!DOCTYPE svg PUBLIC "-//W3C//DTD SVG 20010904//EN"
 "http://www.w3.org/TR/2001/REC-SVG-20010904/DTD/svg10.dtd">
<svg version="1.0" xmlns="http://www.w3.org/2000/svg"
 width="271.000000pt" height="271.000000pt" viewBox="0 0 271.000000 271.000000"
 preserveAspectRatio="xMidYMid meet">
<metadata>
Created by potrace 1.14, written by Peter Selinger 2001-2017
</metadata>
<g transform="translate(0.000000,271.000000) scale(0.100000,-0.100000)"
fill="#000000" stroke="none">
<path d="M1080 2577 c-118 -91 -120 -100 -40 -136 46 -21 83 -55 142 -131 14
-19 56 -73 92 -120 37 -47 81 -104 99 -128 17 -24 38 -49 45 -57 34 -38 9 -33
-105 21 -110 52 -205 96 -307 144 -79 36 -79 37 -151 109 l-53 55 -46 -94
c-26 -52 -45 -101 -44 -109 2 -12 19 -16 68 -18 85 -3 90 -4 190 -51 30 -14
57 -26 60 -27 3 -1 28 -13 56 -28 28 -14 54 -23 58 -20 3 4 6 1 6 -5 0 -7 4
-12 10 -12 12 0 160 -70 160 -76 0 -3 -7 -18 -15 -34 l-15 -29 280 1 279 0
-25 38 c-14 21 -42 49 -62 62 -40 26 -136 57 -165 52 -11 -1 -36 22 -73 69
-31 40 -60 74 -65 75 -5 2 -9 8 -9 13 0 11 -180 242 -192 247 -5 2 -8 10 -8
18 0 8 -4 14 -9 14 -11 0 -58 96 -65 133 -8 47 -17 67 -29 67 -7 0 -37 -19
-67 -43z"/>
<path d="M451 1758 c-32 -11 -26 -44 23 -112 40 -56 78 -120 82 -138 1 -5 2
-9 4 -10 10 -14 14 -94 16 -411 2 -300 0 -375 -12 -403 -8 -19 -14 -36 -14
-39 1 -11 -33 -69 -76 -132 -49 -72 -55 -100 -21 -112 12 -4 509 -8 1105 -7
951 1 1084 3 1092 16 13 20 4 48 -30 90 -37 47 -85 136 -101 185 -9 29 -12
132 -13 360 -1 290 2 372 18 444 7 29 60 125 96 171 34 42 43 70 30 90 -8 13
-141 15 -1094 16 -596 0 -1093 -3 -1105 -8z"/>
<path d="M200 1698 c-107 -35 -142 -49 -151 -62 -11 -15 8 -64 50 -130 66
-105 71 -133 70 -436 0 -275 -7 -329 -44 -387 -9 -13 -12 -23 -8 -23 4 0 0 -6
-9 -12 -24 -19 -58 -89 -58 -121 0 -32 2 -33 145 -76 118 -36 120 -36 123 -13
5 44 23 92 35 92 6 0 8 3 4 6 -3 4 9 25 28 49 19 23 45 64 57 91 22 47 22 60
24 394 1 394 3 383 -85 512 -29 42 -54 89 -57 104 -6 32 -12 44 -22 43 -4 0
-50 -14 -102 -31z"/>
<path d="M913 328 c-12 -15 -11 -153 0 -165 5 -4 74 -8 155 -9 155 -2 193 7
188 43 -2 10 -21 28 -44 41 -28 16 -44 33 -48 50 -4 15 -11 33 -17 40 -13 17
-221 17 -234 0z"/>
<path d="M2016 324 c-9 -24 -7 -137 4 -154 7 -12 39 -15 161 -16 136 -1 154 1
171 18 23 23 9 49 -38 72 -28 13 -66 56 -49 56 3 0 1 9 -5 20 -10 18 -21 20
-124 20 -95 0 -115 -3 -120 -16z"/>
</g>
</svg>
